<svg xmlns="http://www.w3.org/2000/svg" xmlns:xlink="http://www.w3.org/1999/xlink" style="margin: auto; display: block;" width="100px" height="100px" viewBox="0 0 100 100" preserveAspectRatio="xMidYMid">
<defs>
<clipPath id="ldio-vbxgxg3rf2-cp" clipPathUnits="userSpaceOnUse">
<rect x="0" y="54" width="100" height="46"></rect>
</clipPath>
<pattern id="ldio-vbxgxg3rf2-pattern" patternUnits="userSpaceOnUse" x="0" y="0" width="100" height="100">
<rect x="0" y="0" width="100" height="100" fill="#064d69"></rect><circle cx="44" cy="0" r="4" fill="#7ba6b7">
<animateTransform attributeName="transform" type="translate" values="0 139;0 -39" keyTimes="0;1" dur="4s" begin="-1.76s" repeatCount="indefinite"></animateTransform>
</circle><circle cx="97" cy="0" r="3" fill="#7ba6b7">
<animateTransform attributeName="transform" type="translate" values="0 115;0 -15" keyTimes="0;1" dur="4s" begin="-2.88s" repeatCount="indefinite"></animateTransform>
</circle><circle cx="83" cy="0" r="2" fill="#7ba6b7">
<animateTransform attributeName="transform" type="translate" values="0 149;0 -49" keyTimes="0;1" dur="4s" begin="-2.56s" repeatCount="indefinite"></animateTransform>
</circle><circle cx="43" cy="0" r="2" fill="#7ba6b7">
<animateTransform attributeName="transform" type="translate" values="0 104;0 -4" keyTimes="0;1" dur="4s" begin="-1.36s" repeatCount="indefinite"></animateTransform>
</circle><circle cx="5" cy="0" r="3" fill="#7ba6b7">
<animateTransform attributeName="transform" type="translate" values="0 138;0 -38" keyTimes="0;1" dur="4s" begin="-2.52s" repeatCount="indefinite"></animateTransform>
</circle><circle cx="25" cy="0" r="3" fill="#7ba6b7">
<animateTransform attributeName="transform" type="translate" values="0 125;0 -25" keyTimes="0;1" dur="4s" begin="-0.44s" repeatCount="indefinite"></animateTransform>
</circle><circle cx="49" cy="0" r="4" fill="#7ba6b7">
<animateTransform attributeName="transform" type="translate" values="0 123;0 -23" keyTimes="0;1" dur="4s" begin="-2.44s" repeatCount="indefinite"></animateTransform>
</circle><circle cx="57" cy="0" r="2" fill="#7ba6b7">
<animateTransform attributeName="transform" type="translate" values="0 152;0 -52" keyTimes="0;1" dur="4s" begin="-0.96s" repeatCount="indefinite"></animateTransform>
</circle><circle cx="36" cy="0" r="3" fill="#7ba6b7">
<animateTransform attributeName="transform" type="translate" values="0 146;0 -46" keyTimes="0;1" dur="4s" begin="-1.84s" repeatCount="indefinite"></animateTransform>
</circle><circle cx="54" cy="0" r="3" fill="#7ba6b7">
<animateTransform attributeName="transform" type="translate" values="0 149;0 -49" keyTimes="0;1" dur="4s" begin="-3.4s" repeatCount="indefinite"></animateTransform>
</circle><circle cx="16" cy="0" r="4" fill="#7ba6b7">
<animateTransform attributeName="transform" type="translate" values="0 121;0 -21" keyTimes="0;1" dur="4s" begin="-3.08s" repeatCount="indefinite"></animateTransform>
</circle><circle cx="92" cy="0" r="3" fill="#7ba6b7">
<animateTransform attributeName="transform" type="translate" values="0 108;0 -8" keyTimes="0;1" dur="4s" begin="-0.36s" repeatCount="indefinite"></animateTransform>
</circle><circle cx="44" cy="0" r="3" fill="#7ba6b7">
<animateTransform attributeName="transform" type="translate" values="0 141;0 -41" keyTimes="0;1" dur="4s" begin="-1.92s" repeatCount="indefinite"></animateTransform>
</circle><circle cx="94" cy="0" r="5" fill="#7ba6b7">
<animateTransform attributeName="transform" type="translate" values="0 144;0 -44" keyTimes="0;1" dur="4s" begin="-3.88s" repeatCount="indefinite"></animateTransform>
</circle><circle cx="66" cy="0" r="5" fill="#7ba6b7">
<animateTransform attributeName="transform" type="translate" values="0 107;0 -7" keyTimes="0;1" dur="4s" begin="-3.52s" repeatCount="indefinite"></animateTransform>
</circle><circle cx="98" cy="0" r="4" fill="#7ba6b7">
<animateTransform attributeName="transform" type="translate" values="0 132;0 -32" keyTimes="0;1" dur="4s" begin="-2.84s" repeatCount="indefinite"></animateTransform>
</circle><circle cx="47" cy="0" r="3" fill="#7ba6b7">
<animateTransform attributeName="transform" type="translate" values="0 136;0 -36" keyTimes="0;1" dur="4s" begin="-0.4s" repeatCount="indefinite"></animateTransform>
</circle><circle cx="48" cy="0" r="4" fill="#7ba6b7">
<animateTransform attributeName="transform" type="translate" values="0 105;0 -5" keyTimes="0;1" dur="4s" begin="-1.16s" repeatCount="indefinite"></animateTransform>
</circle><circle cx="10" cy="0" r="4" fill="#7ba6b7">
<animateTransform attributeName="transform" type="translate" values="0 123;0 -23" keyTimes="0;1" dur="4s" begin="-0.36s" repeatCount="indefinite"></animateTransform>
</circle><circle cx="41" cy="0" r="3" fill="#7ba6b7">
<animateTransform attributeName="transform" type="translate" values="0 126;0 -26" keyTimes="0;1" dur="4s" begin="-1.96s" repeatCount="indefinite"></animateTransform>
</circle><circle cx="93" cy="0" r="5" fill="#7ba6b7">
<animateTransform attributeName="transform" type="translate" values="0 154;0 -54" keyTimes="0;1" dur="4s" begin="-1.04s" repeatCount="indefinite"></animateTransform>
</circle><circle cx="79" cy="0" r="3" fill="#7ba6b7">
<animateTransform attributeName="transform" type="translate" values="0 140;0 -40" keyTimes="0;1" dur="4s" begin="-1.84s" repeatCount="indefinite"></animateTransform>
</circle><circle cx="20" cy="0" r="4" fill="#7ba6b7">
<animateTransform attributeName="transform" type="translate" values="0 146;0 -46" keyTimes="0;1" dur="4s" begin="-0.16s" repeatCount="indefinite"></animateTransform>
</circle><circle cx="23" cy="0" r="3" fill="#7ba6b7">
<animateTransform attributeName="transform" type="translate" values="0 124;0 -24" keyTimes="0;1" dur="4s" begin="-0.36s" repeatCount="indefinite"></animateTransform>
</circle><circle cx="46" cy="0" r="4" fill="#7ba6b7">
<animateTransform attributeName="transform" type="translate" values="0 133;0 -33" keyTimes="0;1" dur="4s" begin="-1.12s" repeatCount="indefinite"></animateTransform>
</circle><circle cx="99" cy="0" r="4" fill="#7ba6b7">
<animateTransform attributeName="transform" type="translate" values="0 106;0 -6" keyTimes="0;1" dur="4s" begin="-3.04s" repeatCount="indefinite"></animateTransform>
</circle><circle cx="20" cy="0" r="3" fill="#7ba6b7">
<animateTransform attributeName="transform" type="translate" values="0 151;0 -51" keyTimes="0;1" dur="4s" begin="-0.84s" repeatCount="indefinite"></animateTransform>
</circle><circle cx="93" cy="0" r="3" fill="#7ba6b7">
<animateTransform attributeName="transform" type="translate" values="0 124;0 -24" keyTimes="0;1" dur="4s" begin="-2.2s" repeatCount="indefinite"></animateTransform>
</circle><circle cx="60" cy="0" r="3" fill="#7ba6b7">
<animateTransform attributeName="transform" type="translate" values="0 105;0 -5" keyTimes="0;1" dur="4s" begin="-1.52s" repeatCount="indefinite"></animateTransform>
</circle><circle cx="12" cy="0" r="5" fill="#7ba6b7">
<animateTransform attributeName="transform" type="translate" values="0 117;0 -17" keyTimes="0;1" dur="4s" begin="-1.68s" repeatCount="indefinite"></animateTransform>
</circle><circle cx="49" cy="0" r="2" fill="#7ba6b7">
<animateTransform attributeName="transform" type="translate" values="0 126;0 -26" keyTimes="0;1" dur="4s" begin="-0.04s" repeatCount="indefinite"></animateTransform>
</circle><circle cx="98" cy="0" r="3" fill="#7ba6b7">
<animateTransform attributeName="transform" type="translate" values="0 148;0 -48" keyTimes="0;1" dur="4s" begin="-3.52s" repeatCount="indefinite"></animateTransform>
</circle><circle cx="11" cy="0" r="3" fill="#7ba6b7">
<animateTransform attributeName="transform" type="translate" values="0 108;0 -8" keyTimes="0;1" dur="4s" begin="-1.68s" repeatCount="indefinite"></animateTransform>
</circle><circle cx="62" cy="0" r="3" fill="#7ba6b7">
<animateTransform attributeName="transform" type="translate" values="0 116;0 -16" keyTimes="0;1" dur="4s" begin="-2.04s" repeatCount="indefinite"></animateTransform>
</circle></pattern></defs>
<path fill="url(#ldio-vbxgxg3rf2-pattern)" clip-path="url(#ldio-vbxgxg3rf2-cp)" d="M59,37.3V18.9c3-0.8,5.1-3.6,5.1-6.8C64.1,8.2,61,5,57.1,5H42.9c-3.9,0-7.1,3.2-7.1,7.1c0,3.2,2.2,6,5.1,6.8v18.4c-11.9,3.8-20.6,15-20.6,28.2C20.4,81.8,33.7,95,50,95s29.6-13.2,29.6-29.6C79.6,52.2,70.9,41.1,59,37.3z"></path>
<path fill="none" stroke="#1d2830" stroke-width="5" d="M59,37.3V18.9c3-0.8,5.1-3.6,5.1-6.8C64.1,8.2,61,5,57.1,5H42.9c-3.9,0-7.1,3.2-7.1,7.1c0,3.2,2.2,6,5.1,6.8v18.4c-11.9,3.8-20.6,15-20.6,28.2C20.4,81.8,33.7,95,50,95s29.6-13.2,29.6-29.6C79.6,52.2,70.9,41.1,59,37.3z"></path>
</svg>
